<mxfile host="Electron" modified="2024-02-20T14:51:41.704Z" agent="Mozilla/5.0 (X11; Linux x86_64) AppleWebKit/537.36 (KHTML, like Gecko) draw.io/23.1.5 Chrome/120.0.6099.109 Electron/28.1.0 Safari/537.36" etag="dFlmXplNX9pY0rFs1FEb" version="23.1.5" type="device">
  <diagram name="Page-1" id="AyU8zHSex-QtuiCC-qXh">
    <mxGraphModel dx="1727" dy="1128" grid="1" gridSize="10" guides="1" tooltips="1" connect="1" arrows="1" fold="1" page="0" pageScale="1" pageWidth="700" pageHeight="1000" math="0" shadow="0">
      <root>
        <mxCell id="0" />
        <mxCell id="1" parent="0" />
        <mxCell id="VLaIcm3WjWGIRPQe_SjE-183" value="" style="endArrow=none;html=1;rounded=0;exitX=1;exitY=0.5;exitDx=0;exitDy=0;" parent="1" source="VLaIcm3WjWGIRPQe_SjE-105" target="VLaIcm3WjWGIRPQe_SjE-37" edge="1">
          <mxGeometry relative="1" as="geometry">
            <mxPoint x="590" y="340" as="sourcePoint" />
            <mxPoint x="750" y="340" as="targetPoint" />
            <Array as="points">
              <mxPoint x="1220" y="390" />
            </Array>
          </mxGeometry>
        </mxCell>
        <mxCell id="VLaIcm3WjWGIRPQe_SjE-184" value="1" style="edgeLabel;html=1;align=center;verticalAlign=middle;resizable=0;points=[];" parent="VLaIcm3WjWGIRPQe_SjE-183" vertex="1" connectable="0">
          <mxGeometry x="-0.8252" y="1" relative="1" as="geometry">
            <mxPoint x="-32" y="1" as="offset" />
          </mxGeometry>
        </mxCell>
        <mxCell id="VLaIcm3WjWGIRPQe_SjE-216" value="" style="endArrow=none;html=1;rounded=0;" parent="1" target="cZHQrxu1aN8E450vOLou-3" edge="1">
          <mxGeometry relative="1" as="geometry">
            <mxPoint x="180" y="150" as="sourcePoint" />
            <mxPoint x="400" y="40" as="targetPoint" />
            <Array as="points">
              <mxPoint x="360" y="150" />
              <mxPoint x="360" y="40" />
            </Array>
          </mxGeometry>
        </mxCell>
        <mxCell id="f9Bk2eqlCbJUMPyDptGG-4" value="1" style="edgeLabel;html=1;align=center;verticalAlign=middle;resizable=0;points=[];" parent="VLaIcm3WjWGIRPQe_SjE-216" vertex="1" connectable="0">
          <mxGeometry x="-0.8021" y="-1" relative="1" as="geometry">
            <mxPoint x="-12" y="-1" as="offset" />
          </mxGeometry>
        </mxCell>
        <mxCell id="oM3NoHW2EpygK3F5FNvh-15" value="" style="group" parent="1" vertex="1" connectable="0">
          <mxGeometry x="380" y="370" width="350" height="210" as="geometry" />
        </mxCell>
        <mxCell id="VLaIcm3WjWGIRPQe_SjE-105" value="Group" style="whiteSpace=wrap;html=1;align=center;" parent="oM3NoHW2EpygK3F5FNvh-15" vertex="1">
          <mxGeometry x="130" width="100" height="40" as="geometry" />
        </mxCell>
        <mxCell id="oM3NoHW2EpygK3F5FNvh-14" value="" style="group" parent="oM3NoHW2EpygK3F5FNvh-15" vertex="1" connectable="0">
          <mxGeometry y="80" width="350" height="130" as="geometry" />
        </mxCell>
        <mxCell id="VLaIcm3WjWGIRPQe_SjE-106" value="group_name" style="ellipse;whiteSpace=wrap;html=1;align=center;" parent="oM3NoHW2EpygK3F5FNvh-14" vertex="1">
          <mxGeometry x="130" y="90" width="100" height="40" as="geometry" />
        </mxCell>
        <mxCell id="VLaIcm3WjWGIRPQe_SjE-107" value="group_id" style="ellipse;whiteSpace=wrap;html=1;align=center;fontStyle=4;" parent="oM3NoHW2EpygK3F5FNvh-14" vertex="1">
          <mxGeometry width="100" height="40" as="geometry" />
        </mxCell>
        <mxCell id="VLaIcm3WjWGIRPQe_SjE-108" value="description" style="ellipse;whiteSpace=wrap;html=1;align=center;" parent="oM3NoHW2EpygK3F5FNvh-14" vertex="1">
          <mxGeometry x="250" width="100" height="40" as="geometry" />
        </mxCell>
        <mxCell id="VLaIcm3WjWGIRPQe_SjE-109" value="admin_id" style="ellipse;whiteSpace=wrap;html=1;align=center;" parent="oM3NoHW2EpygK3F5FNvh-14" vertex="1">
          <mxGeometry x="195" y="40" width="100" height="40" as="geometry" />
        </mxCell>
        <mxCell id="VLaIcm3WjWGIRPQe_SjE-111" value="user_ids" style="ellipse;shape=doubleEllipse;margin=3;whiteSpace=wrap;html=1;align=center;" parent="oM3NoHW2EpygK3F5FNvh-14" vertex="1">
          <mxGeometry x="60" y="40" width="100" height="40" as="geometry" />
        </mxCell>
        <mxCell id="VLaIcm3WjWGIRPQe_SjE-115" value="" style="endArrow=none;html=1;rounded=0;" parent="oM3NoHW2EpygK3F5FNvh-15" source="VLaIcm3WjWGIRPQe_SjE-106" target="VLaIcm3WjWGIRPQe_SjE-105" edge="1">
          <mxGeometry relative="1" as="geometry">
            <mxPoint x="600" y="460" as="sourcePoint" />
            <mxPoint x="760" y="460" as="targetPoint" />
          </mxGeometry>
        </mxCell>
        <mxCell id="VLaIcm3WjWGIRPQe_SjE-112" value="" style="endArrow=none;html=1;rounded=0;" parent="oM3NoHW2EpygK3F5FNvh-15" source="VLaIcm3WjWGIRPQe_SjE-107" target="VLaIcm3WjWGIRPQe_SjE-105" edge="1">
          <mxGeometry relative="1" as="geometry">
            <mxPoint x="570" y="430" as="sourcePoint" />
            <mxPoint x="730" y="430" as="targetPoint" />
          </mxGeometry>
        </mxCell>
        <mxCell id="VLaIcm3WjWGIRPQe_SjE-114" value="" style="endArrow=none;html=1;rounded=0;" parent="oM3NoHW2EpygK3F5FNvh-15" source="VLaIcm3WjWGIRPQe_SjE-108" target="VLaIcm3WjWGIRPQe_SjE-105" edge="1">
          <mxGeometry relative="1" as="geometry">
            <mxPoint x="590" y="450" as="sourcePoint" />
            <mxPoint x="750" y="450" as="targetPoint" />
          </mxGeometry>
        </mxCell>
        <mxCell id="VLaIcm3WjWGIRPQe_SjE-116" value="" style="endArrow=none;html=1;rounded=0;" parent="oM3NoHW2EpygK3F5FNvh-15" source="VLaIcm3WjWGIRPQe_SjE-105" target="VLaIcm3WjWGIRPQe_SjE-109" edge="1">
          <mxGeometry relative="1" as="geometry">
            <mxPoint x="610" y="470" as="sourcePoint" />
            <mxPoint x="770" y="470" as="targetPoint" />
          </mxGeometry>
        </mxCell>
        <mxCell id="VLaIcm3WjWGIRPQe_SjE-113" value="" style="endArrow=none;html=1;rounded=0;" parent="oM3NoHW2EpygK3F5FNvh-15" source="VLaIcm3WjWGIRPQe_SjE-111" target="VLaIcm3WjWGIRPQe_SjE-105" edge="1">
          <mxGeometry relative="1" as="geometry">
            <mxPoint x="580" y="440" as="sourcePoint" />
            <mxPoint x="740" y="440" as="targetPoint" />
          </mxGeometry>
        </mxCell>
        <mxCell id="VLaIcm3WjWGIRPQe_SjE-64" value="Owns" style="rhombus;whiteSpace=wrap;html=1;" parent="1" vertex="1">
          <mxGeometry x="390" y="210" width="80" height="80" as="geometry" />
        </mxCell>
        <mxCell id="cZHQrxu1aN8E450vOLou-9" value="" style="endArrow=none;html=1;rounded=0;exitX=1;exitY=0.5;exitDx=0;exitDy=0;" parent="1" source="VLaIcm3WjWGIRPQe_SjE-121" target="cZHQrxu1aN8E450vOLou-8" edge="1">
          <mxGeometry relative="1" as="geometry">
            <mxPoint x="610" y="40" as="sourcePoint" />
            <mxPoint x="840" y="240" as="targetPoint" />
            <Array as="points">
              <mxPoint x="840" y="40" />
            </Array>
          </mxGeometry>
        </mxCell>
        <mxCell id="cZHQrxu1aN8E450vOLou-10" value="1" style="edgeLabel;html=1;align=center;verticalAlign=middle;resizable=0;points=[];" parent="cZHQrxu1aN8E450vOLou-9" vertex="1" connectable="0">
          <mxGeometry x="-0.8274" relative="1" as="geometry">
            <mxPoint x="-29" as="offset" />
          </mxGeometry>
        </mxCell>
        <mxCell id="cZHQrxu1aN8E450vOLou-39" value="" style="group" parent="1" vertex="1" connectable="0">
          <mxGeometry x="750" y="110" width="420" height="160" as="geometry" />
        </mxCell>
        <mxCell id="cZHQrxu1aN8E450vOLou-36" value="" style="group" parent="cZHQrxu1aN8E450vOLou-39" vertex="1" connectable="0">
          <mxGeometry x="120" width="300" height="160" as="geometry" />
        </mxCell>
        <mxCell id="cZHQrxu1aN8E450vOLou-38" value="" style="group" parent="cZHQrxu1aN8E450vOLou-36" vertex="1" connectable="0">
          <mxGeometry width="300" height="160" as="geometry" />
        </mxCell>
        <mxCell id="cZHQrxu1aN8E450vOLou-16" value="timestamp" style="ellipse;whiteSpace=wrap;html=1;align=center;" parent="cZHQrxu1aN8E450vOLou-38" vertex="1">
          <mxGeometry width="100" height="40" as="geometry" />
        </mxCell>
        <mxCell id="cZHQrxu1aN8E450vOLou-17" value="notification_id" style="ellipse;whiteSpace=wrap;html=1;align=center;fontStyle=4;" parent="cZHQrxu1aN8E450vOLou-38" vertex="1">
          <mxGeometry x="110" y="20" width="100" height="40" as="geometry" />
        </mxCell>
        <mxCell id="cZHQrxu1aN8E450vOLou-18" value="content" style="ellipse;whiteSpace=wrap;html=1;align=center;" parent="cZHQrxu1aN8E450vOLou-38" vertex="1">
          <mxGeometry x="200" y="60" width="100" height="40" as="geometry" />
        </mxCell>
        <mxCell id="cZHQrxu1aN8E450vOLou-19" value="sender_id" style="ellipse;whiteSpace=wrap;html=1;align=center;" parent="cZHQrxu1aN8E450vOLou-38" vertex="1">
          <mxGeometry x="110" y="100" width="100" height="40" as="geometry" />
        </mxCell>
        <mxCell id="cZHQrxu1aN8E450vOLou-20" value="receiver_id" style="ellipse;whiteSpace=wrap;html=1;align=center;" parent="cZHQrxu1aN8E450vOLou-38" vertex="1">
          <mxGeometry y="120" width="100" height="40" as="geometry" />
        </mxCell>
        <mxCell id="cZHQrxu1aN8E450vOLou-26" value="" style="endArrow=none;html=1;rounded=0;" parent="cZHQrxu1aN8E450vOLou-39" source="cZHQrxu1aN8E450vOLou-16" target="cZHQrxu1aN8E450vOLou-15" edge="1">
          <mxGeometry relative="1" as="geometry">
            <mxPoint x="100" y="342.5" as="sourcePoint" />
            <mxPoint x="260" y="342.5" as="targetPoint" />
          </mxGeometry>
        </mxCell>
        <mxCell id="cZHQrxu1aN8E450vOLou-21" value="" style="endArrow=none;html=1;rounded=0;" parent="cZHQrxu1aN8E450vOLou-39" source="cZHQrxu1aN8E450vOLou-20" target="cZHQrxu1aN8E450vOLou-15" edge="1">
          <mxGeometry relative="1" as="geometry">
            <mxPoint x="50" y="292.5" as="sourcePoint" />
            <mxPoint x="210" y="292.5" as="targetPoint" />
          </mxGeometry>
        </mxCell>
        <mxCell id="cZHQrxu1aN8E450vOLou-15" value="Notification" style="whiteSpace=wrap;html=1;align=center;" parent="cZHQrxu1aN8E450vOLou-39" vertex="1">
          <mxGeometry y="60" width="100" height="40" as="geometry" />
        </mxCell>
        <mxCell id="cZHQrxu1aN8E450vOLou-24" value="" style="endArrow=none;html=1;rounded=0;" parent="cZHQrxu1aN8E450vOLou-39" source="cZHQrxu1aN8E450vOLou-17" target="cZHQrxu1aN8E450vOLou-15" edge="1">
          <mxGeometry relative="1" as="geometry">
            <mxPoint x="-40" y="382.5" as="sourcePoint" />
            <mxPoint x="120" y="382.5" as="targetPoint" />
          </mxGeometry>
        </mxCell>
        <mxCell id="cZHQrxu1aN8E450vOLou-25" value="" style="endArrow=none;html=1;rounded=0;" parent="cZHQrxu1aN8E450vOLou-39" source="cZHQrxu1aN8E450vOLou-18" target="cZHQrxu1aN8E450vOLou-15" edge="1">
          <mxGeometry relative="1" as="geometry">
            <mxPoint x="-30" y="392.5" as="sourcePoint" />
            <mxPoint x="130" y="392.5" as="targetPoint" />
          </mxGeometry>
        </mxCell>
        <mxCell id="cZHQrxu1aN8E450vOLou-23" value="" style="endArrow=none;html=1;rounded=0;" parent="cZHQrxu1aN8E450vOLou-39" source="cZHQrxu1aN8E450vOLou-19" target="cZHQrxu1aN8E450vOLou-15" edge="1">
          <mxGeometry relative="1" as="geometry">
            <mxPoint x="-50" y="372.5" as="sourcePoint" />
            <mxPoint x="110" y="372.5" as="targetPoint" />
          </mxGeometry>
        </mxCell>
        <mxCell id="cZHQrxu1aN8E450vOLou-40" value="Has" style="shape=rhombus;perimeter=rhombusPerimeter;whiteSpace=wrap;html=1;align=center;" parent="1" vertex="1">
          <mxGeometry x="620" y="240" width="120" height="60" as="geometry" />
        </mxCell>
        <mxCell id="cZHQrxu1aN8E450vOLou-41" value="Has" style="shape=rhombus;perimeter=rhombusPerimeter;whiteSpace=wrap;html=1;align=center;" parent="1" vertex="1">
          <mxGeometry x="620" y="90" width="120" height="60" as="geometry" />
        </mxCell>
        <mxCell id="cZHQrxu1aN8E450vOLou-3" value="Owns" style="rhombus;whiteSpace=wrap;html=1;" parent="1" vertex="1">
          <mxGeometry x="390" width="80" height="80" as="geometry" />
        </mxCell>
        <mxCell id="cZHQrxu1aN8E450vOLou-44" value="" style="endArrow=none;html=1;rounded=0;" parent="1" source="cZHQrxu1aN8E450vOLou-41" target="VLaIcm3WjWGIRPQe_SjE-121" edge="1">
          <mxGeometry relative="1" as="geometry">
            <mxPoint x="420" y="150" as="sourcePoint" />
            <mxPoint x="560" y="90" as="targetPoint" />
            <Array as="points">
              <mxPoint x="560" y="120" />
            </Array>
          </mxGeometry>
        </mxCell>
        <mxCell id="f9Bk2eqlCbJUMPyDptGG-22" value="1" style="edgeLabel;html=1;align=center;verticalAlign=middle;resizable=0;points=[];" parent="cZHQrxu1aN8E450vOLou-44" vertex="1" connectable="0">
          <mxGeometry x="0.8019" y="1" relative="1" as="geometry">
            <mxPoint as="offset" />
          </mxGeometry>
        </mxCell>
        <mxCell id="cZHQrxu1aN8E450vOLou-45" value="" style="endArrow=none;html=1;rounded=0;" parent="1" source="VLaIcm3WjWGIRPQe_SjE-105" target="cZHQrxu1aN8E450vOLou-40" edge="1">
          <mxGeometry relative="1" as="geometry">
            <mxPoint x="500" y="310" as="sourcePoint" />
            <mxPoint x="660" y="310" as="targetPoint" />
            <Array as="points">
              <mxPoint x="560" y="270" />
            </Array>
          </mxGeometry>
        </mxCell>
        <mxCell id="f9Bk2eqlCbJUMPyDptGG-21" value="1" style="edgeLabel;html=1;align=center;verticalAlign=middle;resizable=0;points=[];" parent="cZHQrxu1aN8E450vOLou-45" vertex="1" connectable="0">
          <mxGeometry x="-0.87" y="1" relative="1" as="geometry">
            <mxPoint x="1" y="-10" as="offset" />
          </mxGeometry>
        </mxCell>
        <mxCell id="cZHQrxu1aN8E450vOLou-4" value="" style="endArrow=none;html=1;rounded=0;" parent="1" source="cZHQrxu1aN8E450vOLou-3" target="VLaIcm3WjWGIRPQe_SjE-121" edge="1">
          <mxGeometry relative="1" as="geometry">
            <mxPoint x="325" y="160" as="sourcePoint" />
            <mxPoint x="485" y="160" as="targetPoint" />
          </mxGeometry>
        </mxCell>
        <mxCell id="f9Bk2eqlCbJUMPyDptGG-17" value="N" style="edgeLabel;html=1;align=center;verticalAlign=middle;resizable=0;points=[];" parent="cZHQrxu1aN8E450vOLou-4" vertex="1" connectable="0">
          <mxGeometry x="0.0417" y="-1" relative="1" as="geometry">
            <mxPoint x="9" y="-1" as="offset" />
          </mxGeometry>
        </mxCell>
        <mxCell id="cZHQrxu1aN8E450vOLou-49" value="" style="endArrow=none;html=1;rounded=0;" parent="1" source="cZHQrxu1aN8E450vOLou-41" target="cZHQrxu1aN8E450vOLou-15" edge="1">
          <mxGeometry relative="1" as="geometry">
            <mxPoint x="690" y="120" as="sourcePoint" />
            <mxPoint x="850" y="120" as="targetPoint" />
            <Array as="points">
              <mxPoint x="800" y="120" />
            </Array>
          </mxGeometry>
        </mxCell>
        <mxCell id="f9Bk2eqlCbJUMPyDptGG-23" value="N" style="edgeLabel;html=1;align=center;verticalAlign=middle;resizable=0;points=[];" parent="cZHQrxu1aN8E450vOLou-49" vertex="1" connectable="0">
          <mxGeometry x="0.7545" y="-2" relative="1" as="geometry">
            <mxPoint x="2" y="-7" as="offset" />
          </mxGeometry>
        </mxCell>
        <mxCell id="cZHQrxu1aN8E450vOLou-50" value="" style="endArrow=none;html=1;rounded=0;" parent="1" source="cZHQrxu1aN8E450vOLou-40" target="cZHQrxu1aN8E450vOLou-15" edge="1">
          <mxGeometry relative="1" as="geometry">
            <mxPoint x="720" y="290" as="sourcePoint" />
            <mxPoint x="880" y="290" as="targetPoint" />
            <Array as="points">
              <mxPoint x="800" y="270" />
            </Array>
          </mxGeometry>
        </mxCell>
        <mxCell id="f9Bk2eqlCbJUMPyDptGG-24" value="N" style="edgeLabel;html=1;align=center;verticalAlign=middle;resizable=0;points=[];" parent="cZHQrxu1aN8E450vOLou-50" vertex="1" connectable="0">
          <mxGeometry x="0.8574" relative="1" as="geometry">
            <mxPoint y="12" as="offset" />
          </mxGeometry>
        </mxCell>
        <mxCell id="VLaIcm3WjWGIRPQe_SjE-6" value="User" style="whiteSpace=wrap;html=1;align=center;" parent="1" vertex="1">
          <mxGeometry x="80" y="140" width="100" height="40" as="geometry" />
        </mxCell>
        <mxCell id="VLaIcm3WjWGIRPQe_SjE-30" value="" style="endArrow=none;html=1;rounded=0;" parent="1" source="VLaIcm3WjWGIRPQe_SjE-10" target="VLaIcm3WjWGIRPQe_SjE-6" edge="1">
          <mxGeometry relative="1" as="geometry">
            <mxPoint x="40" y="130" as="sourcePoint" />
            <mxPoint x="200" y="130" as="targetPoint" />
          </mxGeometry>
        </mxCell>
        <mxCell id="VLaIcm3WjWGIRPQe_SjE-27" value="" style="endArrow=none;html=1;rounded=0;" parent="1" source="VLaIcm3WjWGIRPQe_SjE-6" target="VLaIcm3WjWGIRPQe_SjE-13" edge="1">
          <mxGeometry relative="1" as="geometry">
            <mxPoint x="190" y="170" as="sourcePoint" />
            <mxPoint x="350" y="170" as="targetPoint" />
          </mxGeometry>
        </mxCell>
        <mxCell id="VLaIcm3WjWGIRPQe_SjE-28" value="" style="endArrow=none;html=1;rounded=0;" parent="1" source="VLaIcm3WjWGIRPQe_SjE-14" target="VLaIcm3WjWGIRPQe_SjE-6" edge="1">
          <mxGeometry relative="1" as="geometry">
            <mxPoint x="40" y="140" as="sourcePoint" />
            <mxPoint x="200" y="140" as="targetPoint" />
          </mxGeometry>
        </mxCell>
        <mxCell id="VLaIcm3WjWGIRPQe_SjE-31" value="" style="endArrow=none;html=1;rounded=0;" parent="1" source="VLaIcm3WjWGIRPQe_SjE-24" target="VLaIcm3WjWGIRPQe_SjE-6" edge="1">
          <mxGeometry relative="1" as="geometry">
            <mxPoint x="30" y="150" as="sourcePoint" />
            <mxPoint x="190" y="150" as="targetPoint" />
          </mxGeometry>
        </mxCell>
        <mxCell id="VLaIcm3WjWGIRPQe_SjE-29" value="" style="endArrow=none;html=1;rounded=0;" parent="1" source="VLaIcm3WjWGIRPQe_SjE-25" target="VLaIcm3WjWGIRPQe_SjE-6" edge="1">
          <mxGeometry relative="1" as="geometry">
            <mxPoint x="20" y="190" as="sourcePoint" />
            <mxPoint x="180" y="190" as="targetPoint" />
          </mxGeometry>
        </mxCell>
        <mxCell id="VLaIcm3WjWGIRPQe_SjE-134" value="" style="endArrow=none;html=1;rounded=0;" parent="1" source="VLaIcm3WjWGIRPQe_SjE-6" target="VLaIcm3WjWGIRPQe_SjE-133" edge="1">
          <mxGeometry relative="1" as="geometry">
            <mxPoint x="270" y="150" as="sourcePoint" />
            <mxPoint x="430" y="150" as="targetPoint" />
          </mxGeometry>
        </mxCell>
        <mxCell id="VLaIcm3WjWGIRPQe_SjE-10" value="user_id" style="ellipse;whiteSpace=wrap;html=1;align=center;fontStyle=4;" parent="1" vertex="1">
          <mxGeometry x="-110" y="120" width="100" height="40" as="geometry" />
        </mxCell>
        <mxCell id="VLaIcm3WjWGIRPQe_SjE-12" value="last_name" style="ellipse;whiteSpace=wrap;html=1;align=center;" parent="1" vertex="1">
          <mxGeometry x="230" y="50" width="100" height="40" as="geometry" />
        </mxCell>
        <mxCell id="VLaIcm3WjWGIRPQe_SjE-13" value="name" style="ellipse;whiteSpace=wrap;html=1;align=center;" parent="1" vertex="1">
          <mxGeometry x="140" y="90" width="100" height="40" as="geometry" />
        </mxCell>
        <mxCell id="VLaIcm3WjWGIRPQe_SjE-14" value="username" style="ellipse;whiteSpace=wrap;html=1;align=center;" parent="1" vertex="1">
          <mxGeometry x="-90" y="60" width="100" height="40" as="geometry" />
        </mxCell>
        <mxCell id="VLaIcm3WjWGIRPQe_SjE-22" value="" style="endArrow=none;html=1;rounded=0;" parent="1" source="VLaIcm3WjWGIRPQe_SjE-13" target="VLaIcm3WjWGIRPQe_SjE-17" edge="1">
          <mxGeometry relative="1" as="geometry">
            <mxPoint x="270" y="140" as="sourcePoint" />
            <mxPoint x="430" y="140" as="targetPoint" />
          </mxGeometry>
        </mxCell>
        <mxCell id="VLaIcm3WjWGIRPQe_SjE-23" value="" style="endArrow=none;html=1;rounded=0;" parent="1" source="VLaIcm3WjWGIRPQe_SjE-13" target="VLaIcm3WjWGIRPQe_SjE-12" edge="1">
          <mxGeometry relative="1" as="geometry">
            <mxPoint x="310" y="120" as="sourcePoint" />
            <mxPoint x="470" y="120" as="targetPoint" />
          </mxGeometry>
        </mxCell>
        <mxCell id="VLaIcm3WjWGIRPQe_SjE-24" value="email" style="ellipse;whiteSpace=wrap;html=1;align=center;" parent="1" vertex="1">
          <mxGeometry x="-100" y="180" width="100" height="40" as="geometry" />
        </mxCell>
        <mxCell id="VLaIcm3WjWGIRPQe_SjE-25" value="password" style="ellipse;whiteSpace=wrap;html=1;align=center;" parent="1" vertex="1">
          <mxGeometry x="-40" y="230" width="100" height="40" as="geometry" />
        </mxCell>
        <mxCell id="VLaIcm3WjWGIRPQe_SjE-133" value="Friends" style="ellipse;shape=doubleEllipse;margin=3;whiteSpace=wrap;html=1;align=center;" parent="1" vertex="1">
          <mxGeometry x="60" y="50" width="100" height="40" as="geometry" />
        </mxCell>
        <mxCell id="VLaIcm3WjWGIRPQe_SjE-48" value="" style="endArrow=none;html=1;rounded=0;" parent="1" source="VLaIcm3WjWGIRPQe_SjE-133" target="VLaIcm3WjWGIRPQe_SjE-44" edge="1">
          <mxGeometry relative="1" as="geometry">
            <mxPoint x="138.52484083343984" y="-20" as="sourcePoint" />
            <mxPoint x="330" y="20" as="targetPoint" />
          </mxGeometry>
        </mxCell>
        <mxCell id="VLaIcm3WjWGIRPQe_SjE-50" value="" style="endArrow=none;html=1;rounded=0;" parent="1" source="VLaIcm3WjWGIRPQe_SjE-43" target="VLaIcm3WjWGIRPQe_SjE-133" edge="1">
          <mxGeometry relative="1" as="geometry">
            <mxPoint x="100" y="-40" as="sourcePoint" />
            <mxPoint x="104.28571428571422" y="-20" as="targetPoint" />
          </mxGeometry>
        </mxCell>
        <mxCell id="VLaIcm3WjWGIRPQe_SjE-43" value="friendship_id" style="ellipse;whiteSpace=wrap;html=1;align=center;fontStyle=4;" parent="1" vertex="1">
          <mxGeometry x="-20" width="100" height="40" as="geometry" />
        </mxCell>
        <mxCell id="VLaIcm3WjWGIRPQe_SjE-44" value="status" style="ellipse;whiteSpace=wrap;html=1;align=center;" parent="1" vertex="1">
          <mxGeometry x="60" y="-30" width="100" height="40" as="geometry" />
        </mxCell>
        <mxCell id="VLaIcm3WjWGIRPQe_SjE-45" value="offline" style="ellipse;whiteSpace=wrap;html=1;align=center;" parent="1" vertex="1">
          <mxGeometry x="120" y="-90" width="100" height="40" as="geometry" />
        </mxCell>
        <mxCell id="VLaIcm3WjWGIRPQe_SjE-46" value="online" style="ellipse;whiteSpace=wrap;html=1;align=center;" parent="1" vertex="1">
          <mxGeometry y="-90" width="100" height="40" as="geometry" />
        </mxCell>
        <mxCell id="VLaIcm3WjWGIRPQe_SjE-51" value="" style="endArrow=none;html=1;rounded=0;" parent="1" source="VLaIcm3WjWGIRPQe_SjE-44" target="VLaIcm3WjWGIRPQe_SjE-45" edge="1">
          <mxGeometry relative="1" as="geometry">
            <mxPoint x="190" y="30" as="sourcePoint" />
            <mxPoint x="350" y="30" as="targetPoint" />
          </mxGeometry>
        </mxCell>
        <mxCell id="VLaIcm3WjWGIRPQe_SjE-52" value="" style="endArrow=none;html=1;rounded=0;" parent="1" source="VLaIcm3WjWGIRPQe_SjE-44" target="VLaIcm3WjWGIRPQe_SjE-46" edge="1">
          <mxGeometry relative="1" as="geometry">
            <mxPoint x="-30" y="-60" as="sourcePoint" />
            <mxPoint x="130" y="-60" as="targetPoint" />
          </mxGeometry>
        </mxCell>
        <mxCell id="VLaIcm3WjWGIRPQe_SjE-17" value="first_name" style="ellipse;whiteSpace=wrap;html=1;align=center;" parent="1" vertex="1">
          <mxGeometry x="140" y="20" width="100" height="40" as="geometry" />
        </mxCell>
        <mxCell id="f9Bk2eqlCbJUMPyDptGG-1" value="Have" style="rhombus;whiteSpace=wrap;html=1;" parent="1" vertex="1">
          <mxGeometry x="90" y="250" width="80" height="80" as="geometry" />
        </mxCell>
        <mxCell id="f9Bk2eqlCbJUMPyDptGG-2" value="" style="endArrow=none;html=1;rounded=0;" parent="1" source="VLaIcm3WjWGIRPQe_SjE-6" target="f9Bk2eqlCbJUMPyDptGG-1" edge="1">
          <mxGeometry relative="1" as="geometry">
            <mxPoint x="190" y="180" as="sourcePoint" />
            <mxPoint x="400" y="260" as="targetPoint" />
            <Array as="points">
              <mxPoint x="130" y="220" />
            </Array>
          </mxGeometry>
        </mxCell>
        <mxCell id="f9Bk2eqlCbJUMPyDptGG-3" value="1" style="edgeLabel;html=1;align=center;verticalAlign=middle;resizable=0;points=[];" parent="f9Bk2eqlCbJUMPyDptGG-2" vertex="1" connectable="0">
          <mxGeometry x="-0.9034" y="-1" relative="1" as="geometry">
            <mxPoint x="1" y="7" as="offset" />
          </mxGeometry>
        </mxCell>
        <mxCell id="f9Bk2eqlCbJUMPyDptGG-5" value="" style="endArrow=none;html=1;rounded=0;dashed=1;dashPattern=1 2;entryX=1;entryY=0.75;entryDx=0;entryDy=0;" parent="1" source="VLaIcm3WjWGIRPQe_SjE-64" target="VLaIcm3WjWGIRPQe_SjE-6" edge="1">
          <mxGeometry relative="1" as="geometry">
            <mxPoint x="240" y="280" as="sourcePoint" />
            <mxPoint x="-20" y="210" as="targetPoint" />
            <Array as="points">
              <mxPoint x="360" y="250" />
              <mxPoint x="360" y="170" />
            </Array>
          </mxGeometry>
        </mxCell>
        <mxCell id="f9Bk2eqlCbJUMPyDptGG-7" value="1" style="edgeLabel;html=1;align=center;verticalAlign=middle;resizable=0;points=[];" parent="f9Bk2eqlCbJUMPyDptGG-5" vertex="1" connectable="0">
          <mxGeometry x="0.8394" y="-1" relative="1" as="geometry">
            <mxPoint as="offset" />
          </mxGeometry>
        </mxCell>
        <mxCell id="f9Bk2eqlCbJUMPyDptGG-8" value="Profile" style="whiteSpace=wrap;html=1;align=center;" parent="1" vertex="1">
          <mxGeometry x="80" y="400" width="100" height="40" as="geometry" />
        </mxCell>
        <mxCell id="f9Bk2eqlCbJUMPyDptGG-9" value="" style="endArrow=none;html=1;rounded=0;" parent="1" source="f9Bk2eqlCbJUMPyDptGG-8" target="f9Bk2eqlCbJUMPyDptGG-1" edge="1">
          <mxGeometry relative="1" as="geometry">
            <mxPoint x="140" y="190" as="sourcePoint" />
            <mxPoint x="140" y="260" as="targetPoint" />
            <Array as="points" />
          </mxGeometry>
        </mxCell>
        <mxCell id="f9Bk2eqlCbJUMPyDptGG-10" value="1" style="edgeLabel;html=1;align=center;verticalAlign=middle;resizable=0;points=[];" parent="f9Bk2eqlCbJUMPyDptGG-9" vertex="1" connectable="0">
          <mxGeometry x="-0.9034" y="-1" relative="1" as="geometry">
            <mxPoint x="-1" y="-7" as="offset" />
          </mxGeometry>
        </mxCell>
        <mxCell id="f9Bk2eqlCbJUMPyDptGG-12" value="profile_picture" style="ellipse;whiteSpace=wrap;html=1;align=center;" parent="1" vertex="1">
          <mxGeometry x="10" y="480" width="100" height="40" as="geometry" />
        </mxCell>
        <mxCell id="f9Bk2eqlCbJUMPyDptGG-13" value="bio" style="ellipse;whiteSpace=wrap;html=1;align=center;" parent="1" vertex="1">
          <mxGeometry x="200" y="440" width="100" height="40" as="geometry" />
        </mxCell>
        <mxCell id="f9Bk2eqlCbJUMPyDptGG-14" value="" style="endArrow=none;html=1;rounded=0;" parent="1" source="tsWAVwNvrci6pnw_u5Yu-1" target="f9Bk2eqlCbJUMPyDptGG-8" edge="1">
          <mxGeometry relative="1" as="geometry">
            <mxPoint x="41.23475237772118" y="464.3826238111394" as="sourcePoint" />
            <mxPoint x="90" y="189" as="targetPoint" />
          </mxGeometry>
        </mxCell>
        <mxCell id="f9Bk2eqlCbJUMPyDptGG-15" value="" style="endArrow=none;html=1;rounded=0;" parent="1" source="f9Bk2eqlCbJUMPyDptGG-12" target="f9Bk2eqlCbJUMPyDptGG-8" edge="1">
          <mxGeometry relative="1" as="geometry">
            <mxPoint x="51" y="474" as="sourcePoint" />
            <mxPoint x="100" y="450" as="targetPoint" />
          </mxGeometry>
        </mxCell>
        <mxCell id="f9Bk2eqlCbJUMPyDptGG-16" value="" style="endArrow=none;html=1;rounded=0;" parent="1" source="f9Bk2eqlCbJUMPyDptGG-13" target="f9Bk2eqlCbJUMPyDptGG-8" edge="1">
          <mxGeometry relative="1" as="geometry">
            <mxPoint x="115" y="530" as="sourcePoint" />
            <mxPoint x="135" y="450" as="targetPoint" />
          </mxGeometry>
        </mxCell>
        <mxCell id="f9Bk2eqlCbJUMPyDptGG-19" value="" style="endArrow=none;html=1;rounded=0;dashed=1;dashPattern=1 2;" parent="1" source="VLaIcm3WjWGIRPQe_SjE-64" target="VLaIcm3WjWGIRPQe_SjE-105" edge="1">
          <mxGeometry relative="1" as="geometry">
            <mxPoint x="400" y="260" as="sourcePoint" />
            <mxPoint x="370" y="380" as="targetPoint" />
            <Array as="points">
              <mxPoint x="430" y="390" />
            </Array>
          </mxGeometry>
        </mxCell>
        <mxCell id="f9Bk2eqlCbJUMPyDptGG-20" value="N" style="edgeLabel;html=1;align=center;verticalAlign=middle;resizable=0;points=[];" parent="f9Bk2eqlCbJUMPyDptGG-19" vertex="1" connectable="0">
          <mxGeometry x="0.8394" y="-1" relative="1" as="geometry">
            <mxPoint as="offset" />
          </mxGeometry>
        </mxCell>
        <mxCell id="tsWAVwNvrci6pnw_u5Yu-1" value="user_id" style="ellipse;whiteSpace=wrap;html=1;align=center;fontStyle=4;" vertex="1" parent="1">
          <mxGeometry x="-40" y="430" width="100" height="40" as="geometry" />
        </mxCell>
        <mxCell id="tsWAVwNvrci6pnw_u5Yu-2" value="dob" style="ellipse;whiteSpace=wrap;html=1;align=center;" vertex="1" parent="1">
          <mxGeometry x="150" y="480" width="100" height="40" as="geometry" />
        </mxCell>
        <mxCell id="tsWAVwNvrci6pnw_u5Yu-3" value="" style="endArrow=none;html=1;rounded=0;" edge="1" parent="1" source="tsWAVwNvrci6pnw_u5Yu-2" target="f9Bk2eqlCbJUMPyDptGG-8">
          <mxGeometry relative="1" as="geometry">
            <mxPoint x="140" y="530" as="sourcePoint" />
            <mxPoint x="140" y="450" as="targetPoint" />
          </mxGeometry>
        </mxCell>
        <mxCell id="tsWAVwNvrci6pnw_u5Yu-4" value="status" style="ellipse;whiteSpace=wrap;html=1;align=center;" vertex="1" parent="1">
          <mxGeometry x="80" y="530" width="100" height="40" as="geometry" />
        </mxCell>
        <mxCell id="tsWAVwNvrci6pnw_u5Yu-5" value="" style="endArrow=none;html=1;rounded=0;" edge="1" parent="1" source="tsWAVwNvrci6pnw_u5Yu-4" target="f9Bk2eqlCbJUMPyDptGG-8">
          <mxGeometry relative="1" as="geometry">
            <mxPoint x="201" y="491" as="sourcePoint" />
            <mxPoint x="160" y="450" as="targetPoint" />
          </mxGeometry>
        </mxCell>
        <mxCell id="VLaIcm3WjWGIRPQe_SjE-37" value="Contains" style="rhombus;whiteSpace=wrap;html=1;" parent="1" vertex="1">
          <mxGeometry x="1180" y="210" width="80" height="80" as="geometry" />
        </mxCell>
        <mxCell id="sBZJBs1uWKInFQWBSLts-1" value="" style="shape=link;html=1;rounded=0;" parent="1" source="VLaIcm3WjWGIRPQe_SjE-37" target="VLaIcm3WjWGIRPQe_SjE-68" edge="1">
          <mxGeometry relative="1" as="geometry">
            <mxPoint x="1070" y="120" as="sourcePoint" />
            <mxPoint x="1230" y="120" as="targetPoint" />
          </mxGeometry>
        </mxCell>
        <mxCell id="sBZJBs1uWKInFQWBSLts-2" value="N" style="resizable=0;html=1;whiteSpace=wrap;align=right;verticalAlign=bottom;" parent="sBZJBs1uWKInFQWBSLts-1" connectable="0" vertex="1">
          <mxGeometry x="1" relative="1" as="geometry" />
        </mxCell>
        <mxCell id="f9Bk2eqlCbJUMPyDptGG-25" value="N" style="edgeLabel;html=1;align=center;verticalAlign=middle;resizable=0;points=[];" parent="sBZJBs1uWKInFQWBSLts-1" vertex="1" connectable="0">
          <mxGeometry x="0.169" y="-3" relative="1" as="geometry">
            <mxPoint x="-3" y="-2" as="offset" />
          </mxGeometry>
        </mxCell>
        <mxCell id="oM3NoHW2EpygK3F5FNvh-9" value="" style="endArrow=none;html=1;rounded=0;" parent="1" source="VLaIcm3WjWGIRPQe_SjE-68" target="oM3NoHW2EpygK3F5FNvh-16" edge="1">
          <mxGeometry relative="1" as="geometry">
            <mxPoint x="1460" y="180" as="sourcePoint" />
            <mxPoint x="1620" y="140" as="targetPoint" />
          </mxGeometry>
        </mxCell>
        <mxCell id="f9Bk2eqlCbJUMPyDptGG-27" value="1" style="edgeLabel;html=1;align=center;verticalAlign=middle;resizable=0;points=[];" parent="oM3NoHW2EpygK3F5FNvh-9" vertex="1" connectable="0">
          <mxGeometry x="-0.6968" y="3" relative="1" as="geometry">
            <mxPoint x="-4" y="3" as="offset" />
          </mxGeometry>
        </mxCell>
        <mxCell id="cZHQrxu1aN8E450vOLou-8" value="Contains" style="rhombus;whiteSpace=wrap;html=1;" parent="1" vertex="1">
          <mxGeometry x="1170" width="80" height="80" as="geometry" />
        </mxCell>
        <mxCell id="cZHQrxu1aN8E450vOLou-11" value="" style="shape=link;html=1;rounded=0;" parent="1" source="cZHQrxu1aN8E450vOLou-8" target="VLaIcm3WjWGIRPQe_SjE-68" edge="1">
          <mxGeometry relative="1" as="geometry">
            <mxPoint x="1252" y="242" as="sourcePoint" />
            <mxPoint x="1336" y="170" as="targetPoint" />
          </mxGeometry>
        </mxCell>
        <mxCell id="f9Bk2eqlCbJUMPyDptGG-26" value="N" style="edgeLabel;html=1;align=center;verticalAlign=middle;resizable=0;points=[];" parent="cZHQrxu1aN8E450vOLou-11" vertex="1" connectable="0">
          <mxGeometry x="0.2071" y="2" relative="1" as="geometry">
            <mxPoint as="offset" />
          </mxGeometry>
        </mxCell>
        <mxCell id="oM3NoHW2EpygK3F5FNvh-16" value="Have" style="shape=rhombus;double=1;perimeter=rhombusPerimeter;whiteSpace=wrap;html=1;align=center;" parent="1" vertex="1">
          <mxGeometry x="1620" y="110" width="120" height="60" as="geometry" />
        </mxCell>
        <mxCell id="oM3NoHW2EpygK3F5FNvh-10" value="" style="endArrow=none;html=1;rounded=0;" parent="1" source="oM3NoHW2EpygK3F5FNvh-16" target="oM3NoHW2EpygK3F5FNvh-1" edge="1">
          <mxGeometry relative="1" as="geometry">
            <mxPoint x="1660" y="180" as="sourcePoint" />
            <mxPoint x="1850" y="220" as="targetPoint" />
          </mxGeometry>
        </mxCell>
        <mxCell id="f9Bk2eqlCbJUMPyDptGG-28" value="N" style="edgeLabel;html=1;align=center;verticalAlign=middle;resizable=0;points=[];" parent="oM3NoHW2EpygK3F5FNvh-10" vertex="1" connectable="0">
          <mxGeometry x="0.3294" relative="1" as="geometry">
            <mxPoint as="offset" />
          </mxGeometry>
        </mxCell>
        <mxCell id="oM3NoHW2EpygK3F5FNvh-1" value="attachment" style="whiteSpace=wrap;html=1;container=0;" parent="1" vertex="1">
          <mxGeometry x="1630" y="220" width="100" height="40" as="geometry" />
        </mxCell>
        <mxCell id="VLaIcm3WjWGIRPQe_SjE-85" value="" style="endArrow=none;html=1;rounded=0;" parent="1" source="oM3NoHW2EpygK3F5FNvh-1" target="VLaIcm3WjWGIRPQe_SjE-83" edge="1">
          <mxGeometry relative="1" as="geometry">
            <mxPoint x="2953.0313947445748" y="604.9857296615569" as="sourcePoint" />
            <mxPoint x="3380" y="670" as="targetPoint" />
          </mxGeometry>
        </mxCell>
        <mxCell id="VLaIcm3WjWGIRPQe_SjE-86" value="" style="endArrow=none;html=1;rounded=0;" parent="1" source="VLaIcm3WjWGIRPQe_SjE-81" target="oM3NoHW2EpygK3F5FNvh-1" edge="1">
          <mxGeometry relative="1" as="geometry">
            <mxPoint x="2900" y="691" as="sourcePoint" />
            <mxPoint x="2953.448236581098" y="634.8658829249325" as="targetPoint" />
          </mxGeometry>
        </mxCell>
        <mxCell id="VLaIcm3WjWGIRPQe_SjE-91" value="" style="endArrow=none;html=1;rounded=0;" parent="1" source="oM3NoHW2EpygK3F5FNvh-1" target="VLaIcm3WjWGIRPQe_SjE-82" edge="1">
          <mxGeometry relative="1" as="geometry">
            <mxPoint x="2970" y="620" as="sourcePoint" />
            <mxPoint x="3210" y="780" as="targetPoint" />
          </mxGeometry>
        </mxCell>
        <mxCell id="VLaIcm3WjWGIRPQe_SjE-83" value="document" style="ellipse;whiteSpace=wrap;html=1;align=center;rotation=0;" parent="1" vertex="1">
          <mxGeometry x="1570" y="310" width="100" height="40" as="geometry" />
        </mxCell>
        <mxCell id="VLaIcm3WjWGIRPQe_SjE-81" value="photos" style="ellipse;whiteSpace=wrap;html=1;align=center;rotation=0;" parent="1" vertex="1">
          <mxGeometry x="1630" y="350" width="100" height="40" as="geometry" />
        </mxCell>
        <mxCell id="VLaIcm3WjWGIRPQe_SjE-82" value="videos" style="ellipse;whiteSpace=wrap;html=1;align=center;rotation=0;" parent="1" vertex="1">
          <mxGeometry x="1690" y="310" width="100" height="40" as="geometry" />
        </mxCell>
        <mxCell id="tsWAVwNvrci6pnw_u5Yu-7" value="message_id" style="ellipse;whiteSpace=wrap;html=1;align=center;fontStyle=4;" vertex="1" parent="1">
          <mxGeometry x="1510" y="270" width="100" height="40" as="geometry" />
        </mxCell>
        <mxCell id="tsWAVwNvrci6pnw_u5Yu-8" value="" style="endArrow=none;html=1;rounded=0;" edge="1" parent="1" source="oM3NoHW2EpygK3F5FNvh-1" target="tsWAVwNvrci6pnw_u5Yu-7">
          <mxGeometry relative="1" as="geometry">
            <mxPoint x="1677" y="270" as="sourcePoint" />
            <mxPoint x="1643" y="321" as="targetPoint" />
          </mxGeometry>
        </mxCell>
        <mxCell id="tsWAVwNvrci6pnw_u5Yu-9" value="contacts" style="ellipse;whiteSpace=wrap;html=1;align=center;rotation=0;" vertex="1" parent="1">
          <mxGeometry x="1740" y="260" width="100" height="40" as="geometry" />
        </mxCell>
        <mxCell id="tsWAVwNvrci6pnw_u5Yu-10" value="" style="endArrow=none;html=1;rounded=0;" edge="1" parent="1" source="oM3NoHW2EpygK3F5FNvh-1" target="tsWAVwNvrci6pnw_u5Yu-9">
          <mxGeometry relative="1" as="geometry">
            <mxPoint x="1703" y="270" as="sourcePoint" />
            <mxPoint x="1737" y="321" as="targetPoint" />
          </mxGeometry>
        </mxCell>
        <mxCell id="VLaIcm3WjWGIRPQe_SjE-121" value="Chat" style="whiteSpace=wrap;html=1;align=center;container=0;" parent="1" vertex="1">
          <mxGeometry x="510" y="20" width="100" height="40" as="geometry" />
        </mxCell>
        <mxCell id="VLaIcm3WjWGIRPQe_SjE-122" value="" style="endArrow=none;html=1;rounded=0;" parent="1" source="VLaIcm3WjWGIRPQe_SjE-121" target="VLaIcm3WjWGIRPQe_SjE-126" edge="1">
          <mxGeometry relative="1" as="geometry">
            <mxPoint x="-215" y="-380" as="sourcePoint" />
            <mxPoint x="-55" y="-380" as="targetPoint" />
          </mxGeometry>
        </mxCell>
        <mxCell id="VLaIcm3WjWGIRPQe_SjE-128" value="" style="endArrow=none;html=1;rounded=0;" parent="1" source="VLaIcm3WjWGIRPQe_SjE-121" target="VLaIcm3WjWGIRPQe_SjE-124" edge="1">
          <mxGeometry relative="1" as="geometry">
            <mxPoint x="1165" y="660" as="sourcePoint" />
            <mxPoint x="1165" y="890" as="targetPoint" />
          </mxGeometry>
        </mxCell>
        <mxCell id="VLaIcm3WjWGIRPQe_SjE-127" value="" style="endArrow=none;html=1;rounded=0;" parent="1" source="VLaIcm3WjWGIRPQe_SjE-121" target="VLaIcm3WjWGIRPQe_SjE-125" edge="1">
          <mxGeometry relative="1" as="geometry">
            <mxPoint x="1155" y="650" as="sourcePoint" />
            <mxPoint x="1155" y="880" as="targetPoint" />
          </mxGeometry>
        </mxCell>
        <mxCell id="VLaIcm3WjWGIRPQe_SjE-129" value="" style="endArrow=none;html=1;rounded=0;" parent="1" source="VLaIcm3WjWGIRPQe_SjE-121" target="VLaIcm3WjWGIRPQe_SjE-123" edge="1">
          <mxGeometry relative="1" as="geometry">
            <mxPoint x="1175" y="670" as="sourcePoint" />
            <mxPoint x="1175" y="900" as="targetPoint" />
          </mxGeometry>
        </mxCell>
        <mxCell id="VLaIcm3WjWGIRPQe_SjE-126" value="conversations_id" style="ellipse;shape=doubleEllipse;margin=3;whiteSpace=wrap;html=1;align=center;rotation=0;" parent="1" vertex="1">
          <mxGeometry x="430" y="-100" width="100" height="40" as="geometry" />
        </mxCell>
        <mxCell id="VLaIcm3WjWGIRPQe_SjE-124" value="chat_id" style="ellipse;whiteSpace=wrap;html=1;align=center;fontStyle=4;rotation=0;" parent="1" vertex="1">
          <mxGeometry x="390" y="-50" width="100" height="40" as="geometry" />
        </mxCell>
        <mxCell id="VLaIcm3WjWGIRPQe_SjE-125" value="receiver_name" style="ellipse;whiteSpace=wrap;html=1;align=center;rotation=0;" parent="1" vertex="1">
          <mxGeometry x="600" y="-90" width="100" height="40" as="geometry" />
        </mxCell>
        <mxCell id="VLaIcm3WjWGIRPQe_SjE-123" value="receiver_id" style="ellipse;whiteSpace=wrap;html=1;align=center;rotation=0;" parent="1" vertex="1">
          <mxGeometry x="620" y="-30" width="100" height="40" as="geometry" />
        </mxCell>
        <mxCell id="tsWAVwNvrci6pnw_u5Yu-11" value="sender_id" style="ellipse;whiteSpace=wrap;html=1;align=center;rotation=0;" vertex="1" parent="1">
          <mxGeometry x="510" y="-140" width="100" height="40" as="geometry" />
        </mxCell>
        <mxCell id="tsWAVwNvrci6pnw_u5Yu-12" value="" style="endArrow=none;html=1;rounded=0;" edge="1" parent="1" source="VLaIcm3WjWGIRPQe_SjE-121" target="tsWAVwNvrci6pnw_u5Yu-11">
          <mxGeometry relative="1" as="geometry">
            <mxPoint x="586" y="30" as="sourcePoint" />
            <mxPoint x="644" y="-41" as="targetPoint" />
          </mxGeometry>
        </mxCell>
        <mxCell id="tsWAVwNvrci6pnw_u5Yu-13" value="online" style="ellipse;whiteSpace=wrap;html=1;align=center;" vertex="1" parent="1">
          <mxGeometry x="40" y="590" width="100" height="40" as="geometry" />
        </mxCell>
        <mxCell id="tsWAVwNvrci6pnw_u5Yu-14" value="offline" style="ellipse;whiteSpace=wrap;html=1;align=center;" vertex="1" parent="1">
          <mxGeometry x="150" y="590" width="100" height="40" as="geometry" />
        </mxCell>
        <mxCell id="tsWAVwNvrci6pnw_u5Yu-15" value="" style="endArrow=none;html=1;rounded=0;" edge="1" parent="1" source="tsWAVwNvrci6pnw_u5Yu-13" target="tsWAVwNvrci6pnw_u5Yu-4">
          <mxGeometry relative="1" as="geometry">
            <mxPoint x="140" y="540" as="sourcePoint" />
            <mxPoint x="140" y="450" as="targetPoint" />
          </mxGeometry>
        </mxCell>
        <mxCell id="tsWAVwNvrci6pnw_u5Yu-16" value="" style="endArrow=none;html=1;rounded=0;" edge="1" parent="1" source="tsWAVwNvrci6pnw_u5Yu-14" target="tsWAVwNvrci6pnw_u5Yu-4">
          <mxGeometry relative="1" as="geometry">
            <mxPoint x="113" y="601" as="sourcePoint" />
            <mxPoint x="127" y="579" as="targetPoint" />
          </mxGeometry>
        </mxCell>
        <mxCell id="VLaIcm3WjWGIRPQe_SjE-68" value="Message" style="whiteSpace=wrap;html=1;" parent="1" vertex="1">
          <mxGeometry x="1300" y="120" width="100" height="40" as="geometry" />
        </mxCell>
        <mxCell id="VLaIcm3WjWGIRPQe_SjE-93" value="" style="endArrow=none;html=1;rounded=0;" parent="1" source="VLaIcm3WjWGIRPQe_SjE-68" target="VLaIcm3WjWGIRPQe_SjE-74" edge="1">
          <mxGeometry relative="1" as="geometry">
            <mxPoint x="-630" y="-30" as="sourcePoint" />
            <mxPoint x="-470" y="-30" as="targetPoint" />
          </mxGeometry>
        </mxCell>
        <mxCell id="VLaIcm3WjWGIRPQe_SjE-98" value="" style="endArrow=none;html=1;rounded=0;" parent="1" source="VLaIcm3WjWGIRPQe_SjE-68" target="VLaIcm3WjWGIRPQe_SjE-76" edge="1">
          <mxGeometry relative="1" as="geometry">
            <mxPoint x="-600" as="sourcePoint" />
            <mxPoint x="-440" as="targetPoint" />
          </mxGeometry>
        </mxCell>
        <mxCell id="VLaIcm3WjWGIRPQe_SjE-96" value="" style="endArrow=none;html=1;rounded=0;" parent="1" source="VLaIcm3WjWGIRPQe_SjE-68" target="VLaIcm3WjWGIRPQe_SjE-77" edge="1">
          <mxGeometry relative="1" as="geometry">
            <mxPoint x="-590" y="690" as="sourcePoint" />
            <mxPoint x="-430" y="690" as="targetPoint" />
          </mxGeometry>
        </mxCell>
        <mxCell id="VLaIcm3WjWGIRPQe_SjE-99" value="" style="endArrow=none;html=1;rounded=0;" parent="1" source="VLaIcm3WjWGIRPQe_SjE-75" target="VLaIcm3WjWGIRPQe_SjE-68" edge="1">
          <mxGeometry relative="1" as="geometry">
            <mxPoint x="-800" y="200" as="sourcePoint" />
            <mxPoint x="-640" y="200" as="targetPoint" />
          </mxGeometry>
        </mxCell>
        <mxCell id="VLaIcm3WjWGIRPQe_SjE-97" value="" style="endArrow=none;html=1;rounded=0;" parent="1" source="VLaIcm3WjWGIRPQe_SjE-68" target="VLaIcm3WjWGIRPQe_SjE-78" edge="1">
          <mxGeometry relative="1" as="geometry">
            <mxPoint x="-820" y="180" as="sourcePoint" />
            <mxPoint x="-660" y="180" as="targetPoint" />
          </mxGeometry>
        </mxCell>
        <mxCell id="VLaIcm3WjWGIRPQe_SjE-74" value="message_id" style="ellipse;whiteSpace=wrap;html=1;align=center;fontStyle=4;" parent="1" vertex="1">
          <mxGeometry x="1300" y="20" width="100" height="40" as="geometry" />
        </mxCell>
        <mxCell id="VLaIcm3WjWGIRPQe_SjE-76" value="content" style="ellipse;whiteSpace=wrap;html=1;align=center;" parent="1" vertex="1">
          <mxGeometry x="1450" y="170" width="100" height="40" as="geometry" />
        </mxCell>
        <mxCell id="VLaIcm3WjWGIRPQe_SjE-77" value="sender_id" style="ellipse;whiteSpace=wrap;html=1;align=center;" parent="1" vertex="1">
          <mxGeometry x="1470" y="90" width="100" height="40" as="geometry" />
        </mxCell>
        <mxCell id="VLaIcm3WjWGIRPQe_SjE-75" value="timestamp" style="ellipse;whiteSpace=wrap;html=1;align=center;" parent="1" vertex="1">
          <mxGeometry x="1330" y="190" width="100" height="40" as="geometry" />
        </mxCell>
        <mxCell id="VLaIcm3WjWGIRPQe_SjE-78" value="receiver_id" style="ellipse;whiteSpace=wrap;html=1;align=center;" parent="1" vertex="1">
          <mxGeometry x="1420" y="40" width="100" height="40" as="geometry" />
        </mxCell>
      </root>
    </mxGraphModel>
  </diagram>
</mxfile>
